<?xml version="1.0" encoding="UTF-8" standalone="no"?>
<!-- Created with Inkscape (http://www.inkscape.org/) -->

<svg
   width="270.93332mm"
   height="270.93332mm"
   viewBox="0 0 270.93332 270.93332"
   version="1.1"
   id="svg5"
   xml:space="preserve"
   inkscape:version="1.2.1 (9c6d41e410, 2022-07-14)"
   sodipodi:docname="main - Copie (2).svg"
   inkscape:export-filename="16.png"
   inkscape:export-xdpi="1.5"
   inkscape:export-ydpi="1.5"
   xmlns:inkscape="http://www.inkscape.org/namespaces/inkscape"
   xmlns:sodipodi="http://sodipodi.sourceforge.net/DTD/sodipodi-0.dtd"
   xmlns="http://www.w3.org/2000/svg"
   xmlns:svg="http://www.w3.org/2000/svg"><sodipodi:namedview
     id="namedview7"
     pagecolor="#ffffff"
     bordercolor="#666666"
     borderopacity="1.0"
     inkscape:showpageshadow="2"
     inkscape:pageopacity="0.0"
     inkscape:pagecheckerboard="0"
     inkscape:deskcolor="#d1d1d1"
     inkscape:document-units="mm"
     showgrid="false"
     inkscape:zoom="0.70710678"
     inkscape:cx="475.88286"
     inkscape:cy="608.11183"
     inkscape:window-width="1920"
     inkscape:window-height="1017"
     inkscape:window-x="-8"
     inkscape:window-y="-8"
     inkscape:window-maximized="1"
     inkscape:current-layer="svg5"
     showguides="false"><sodipodi:guide
       position="102.99374,167.34878"
       orientation="1,0"
       id="guide1808"
       inkscape:locked="false" /></sodipodi:namedview><defs
     id="defs2" /><path
     id="path254"
     style="fill:#037679;fill-opacity:1;fill-rule:evenodd;stroke:none;stroke-width:0.79375;stroke-dasharray:none"
     d="M 100.00264,51.392578 C 82.881485,51.582869 65.798836,55.3175 50.233119,62.466018 37.78412,67.944914 26.19778,75.129747 14.7169,82.36574 c -1.88792,1.177341 -3.97871,2.229523 -5.3755,4.007079 -1.40057,2.300236 -0.48502,5.349258 1.34661,7.131795 2.5447,2.958518 6.16278,5.388224 10.19745,5.325464 4.04856,-0.137019 7.47179,-2.556335 10.83789,-4.535839 12.095147,-7.257858 24.407806,-14.406333 37.81216,-19.017572 8.772592,-2.927852 17.846726,-4.632969 27.089556,-5.202167 12.148734,-0.810682 24.357584,1.020234 35.918634,4.875819 11.17069,3.632763 21.74668,8.920041 32.05345,14.579222 6.07649,3.317674 12.49943,6.204025 19.3657,7.381973 9.12939,1.759537 18.46565,1.784306 27.72806,1.957548 11.04047,0.04147 22.30659,-0.763223 32.73501,-4.648053 5.77829,-2.173257 11.32525,-5.077327 16.20079,-8.87584 2.18374,-2.068709 3.11523,-5.335509 2.39546,-8.251419 -1.29942,-1.649021 -3.66213,-1.761666 -5.5332,-1.210938 -11.96451,1.912374 -23.93964,4.00818 -36.01172,4.615235 -9.90055,0.49554 -19.83421,0.410676 -29.64258,-1.066406 -3.93793,-0.604342 -7.97029,-1.338672 -11.71994,-2.825506 -5.53805,-2.088726 -10.62737,-5.152771 -15.88424,-7.835762 -5.78466,-3.06435 -11.66924,-5.954488 -17.77331,-8.332465 -14.08172,-5.708375 -29.19856,-9.138017 -44.44002,-9.050333 -0.67149,-0.0011 -1.34302,0.004 -2.01452,0.005 z" /><path
     id="path256"
     style="fill:#037679;fill-opacity:1;fill-rule:evenodd;stroke:none;stroke-width:0.79375;stroke-dasharray:none"
     d="m 238.11788,152.66797 c -3.93358,0.23007 -7.83996,3.11361 -8.49024,7.12695 -0.46684,3.51743 1.43694,6.69054 2.40235,9.94727 1.07326,3.35354 1.60786,6.83774 0.81079,10.32579 -1.51858,6.58076 -6.93083,11.80641 -13.20412,13.99144 -3.54725,1.23916 -7.3404,1.50543 -11.112,1.67257 -8.65424,0.37719 -17.28083,-0.40343 -25.85869,-1.32983 -17.13767,-1.95868 -34.11767,-5.42814 -50.79157,-9.88756 -6.7079,-1.82714 -13.33034,-3.95618 -19.98945,-5.94396 -3.77392,-0.87592 -7.93192,0.99505 -9.86314,4.33755 -2.140143,3.46629 -1.96235,8.35667 0.86292,11.39985 1.73934,2.01278 4.40105,2.88224 6.78356,3.68054 8.07431,2.9213 16.38426,5.14881 24.72677,7.15903 10.8567,2.42081 21.82552,4.29287 32.78565,6.178 15.13025,2.48509 30.51182,4.25921 45.85938,3.16832 11.30586,-0.96254 22.41138,-5.9128 30.12674,-14.32835 6.04436,-6.62037 9.6376,-15.53748 9.39159,-24.54128 -0.1606,-6.22239 -1.75976,-12.53894 -5.26867,-17.73758 -2.01759,-3.0111 -5.43201,-5.3701 -9.17187,-5.21875 z" /><circle
     style="fill:#01b6b7;fill-opacity:1;stroke:none;stroke-width:0.79375;stroke-linecap:square;stroke-linejoin:round;stroke-dasharray:none;paint-order:stroke markers fill"
     id="circle258"
     cx="102.99374"
     cy="121.26176"
     r="17.677219" /><path
     id="path260"
     style="fill:#046767;fill-opacity:1;stroke:none;stroke-width:0.264583;stroke-dasharray:none"
     d="m 82.799518,97.257812 c -4.021837,0.108232 -7.450418,2.476573 -10.761719,4.494138 -1.517576,0.95443 -3.035108,1.90893 -4.552734,2.86328 0.751749,0.1495 1.50855,0.27443 2.255859,0.44532 -2.689311,3.36823 -4.474615,7.42828 -5.140631,11.68714 -1.44445,8.57333 1.091692,17.77774 6.892585,24.28161 -0.360577,1.13174 0.851535,1.87883 1.486328,2.61718 2.980856,2.77237 7.047886,3.94287 10.968264,4.6202 4.791358,0.76107 9.767303,0.2526 14.311362,-1.44153 0.584558,-0.0333 3.228178,0.47566 2.670048,-0.0432 -0.90959,-0.42005 -4.71102,-1.5588 -5.675679,-1.84763 -2.847574,-0.647 -4.938982,-1.48497 -7.480608,-2.98219 -6.828677,-3.69636 -11.5344,-10.9162 -12.290559,-18.62922 -0.659313,-6.0617 1.279851,-12.39659 5.435299,-16.89401 1.235835,-1.28322 2.515624,-2.6363 4.154518,-3.39223 2.49958,-1.0239 5.533301,-2.12983 8.077885,-2.96487 1.033207,-0.263403 0.694449,-0.467831 -0.260371,-0.776888 -2.827846,-1.021219 -5.796656,-1.691938 -8.789063,-2.011719 -0.433365,-0.02499 -0.866886,-0.03546 -1.300781,-0.02539 z"
     sodipodi:nodetypes="scccccccccccccccccss" /><path
     id="path262"
     style="fill:#046767;fill-opacity:1;fill-rule:evenodd;stroke:none;stroke-width:0.79375;stroke-linecap:square;stroke-linejoin:round;paint-order:stroke markers fill"
     d="m 227.86646,161.29277 a 17.677219,17.677219 0 0 1 -17.67722,17.67722 17.677219,17.677219 0 0 1 -17.67722,-17.67722 17.677219,17.677219 0 0 1 17.67722,-17.67722 17.677219,17.677219 0 0 1 17.67722,17.67722 z m -9.85862,0 a 7.818593,7.818593 0 0 1 -7.8186,7.81859 7.818593,7.818593 0 0 1 -7.81859,-7.81859 7.818593,7.818593 0 0 1 7.81859,-7.81859 7.818593,7.818593 0 0 1 7.8186,7.81859 z" /><path
     id="path264"
     style="fill:#037679;fill-opacity:1;fill-rule:evenodd;stroke:none;stroke-width:0.264583;stroke-dasharray:none"
     d="m 98.916706,88.201172 c -13.590367,0.556286 -27.084951,3.682743 -39.47248,9.319054 -7.236485,3.273444 -14.222961,7.100954 -20.890802,11.415324 -6.316954,4.16584 -12.249764,8.88313 -18.021484,13.76953 4.32368,4.1911 9.43148,7.4336 14.35581,10.85553 6.024412,4.08052 12.080712,8.13231 18.412454,11.72624 11.67496,6.24509 24.045478,11.61108 37.194367,13.74015 7.337427,1.21749 14.887609,1.31839 22.210619,-0.0585 11.99471,-2.14898 23.34785,-7.0976 33.71852,-13.40578 8.56354,-5.24169 16.44443,-11.55985 23.59846,-18.59593 1.89393,0.70507 3.88657,1.15036 5.85351,1.62327 7.76391,1.71357 15.73732,2.26538 23.67301,2.36079 8.07009,0.0572 16.24406,-0.81349 23.85453,-3.62287 4.3895,-1.58862 8.69832,-3.64422 12.28517,-6.67293 0.78463,-0.63714 1.25273,-1.57241 1.37089,-2.56131 0.33155,-0.73626 -0.33469,-1.6109 -1.13867,-1.34375 -3.33474,0.36801 -6.6896,0.64227 -10.03787,0.90232 -5.29387,0.3183 -10.67342,0.30757 -16.00617,0.23464 -7.14846,-0.16846 -14.30733,-0.5233 -21.37979,-1.36938 -4.87782,-0.5577 -9.77726,-1.50614 -14.23236,-3.64603 -5.67591,-2.5879 -11.05824,-5.92775 -16.67686,-8.75966 -12.80548,-6.636087 -26.30535,-12.347167 -40.6017,-14.748307 -5.96405,-0.982869 -12.02717,-1.399308 -18.069154,-1.162401 z m 4.498044,13.449218 c 10.39652,-0.018 20.76485,2.03826 30.46296,5.64662 8.12558,3.00543 15.90499,6.86856 23.3855,11.25253 0.77789,0.26495 -0.17894,0.66957 -0.47537,1.0055 -3.74069,3.09644 -7.76049,5.95153 -11.75632,8.76731 -6.10759,4.25073 -12.61876,7.91883 -19.45149,10.8702 -4.42767,1.92901 -9.17909,3.61186 -13.8352,4.75081 -3.83869,0.90552 -7.76421,1.48217 -11.67851,0.70452 -8.152044,-1.13639 -16.394886,-2.36767 -24.175794,-4.90247 -11.207329,-4.4662 -21.650709,-10.62966 -31.507024,-17.52275 3.23983,-2.25896 6.682595,-4.32749 10.132389,-6.35907 5.99172,-3.47468 12.137525,-6.70412 18.49128,-9.46597 4.709397,-1.83721 9.659351,-2.9165 14.631337,-3.7048 5.236208,-0.77554 10.477829,-1.00709 15.776242,-1.04243 z" /><path
     id="path266"
     style="fill:#037679;fill-opacity:1;fill-rule:evenodd;stroke:none;stroke-width:0.79375;stroke-dasharray:none"
     d="m 49.348346,170.49023 c -5.950856,0.1182 -10.867374,6.42087 -9.486328,12.22071 0.746656,3.41011 3.558517,5.72232 5.580656,8.38261 7.038547,8.30251 15.016412,16.12271 24.770726,21.16249 4.907705,2.50889 10.048098,4.73754 15.50046,5.70962 3.259595,0.22536 6.562762,-1.33372 8.493861,-3.96371 0.695903,-2.48315 -0.845129,-5.01449 -2.865234,-6.37304 -10.778074,-9.55376 -21.714122,-19.06677 -30.934156,-30.19186 -1.471945,-1.66677 -2.835614,-3.45619 -4.483296,-4.95061 -1.902651,-1.34393 -4.24173,-2.0904 -6.576689,-1.99621 z" /></svg>
