<?xml version="1.0" encoding="UTF-8" standalone="no"?>
<!-- Created with Inkscape (http://www.inkscape.org/) -->

<svg
   width="270.93332mm"
   height="270.93332mm"
   viewBox="0 0 270.93332 270.93332"
   version="1.1"
   id="svg5"
   xml:space="preserve"
   inkscape:version="1.2.1 (9c6d41e410, 2022-07-14)"
   sodipodi:docname="main - Copie.svg"
   inkscape:export-filename="16.png"
   inkscape:export-xdpi="1.5"
   inkscape:export-ydpi="1.5"
   xmlns:inkscape="http://www.inkscape.org/namespaces/inkscape"
   xmlns:sodipodi="http://sodipodi.sourceforge.net/DTD/sodipodi-0.dtd"
   xmlns="http://www.w3.org/2000/svg"
   xmlns:svg="http://www.w3.org/2000/svg"><sodipodi:namedview
     id="namedview7"
     pagecolor="#ffffff"
     bordercolor="#666666"
     borderopacity="1.0"
     inkscape:showpageshadow="2"
     inkscape:pageopacity="0.0"
     inkscape:pagecheckerboard="0"
     inkscape:deskcolor="#d1d1d1"
     inkscape:document-units="mm"
     showgrid="false"
     inkscape:zoom="0.70710678"
     inkscape:cx="475.88286"
     inkscape:cy="608.11183"
     inkscape:window-width="1920"
     inkscape:window-height="1017"
     inkscape:window-x="-8"
     inkscape:window-y="-8"
     inkscape:window-maximized="1"
     inkscape:current-layer="svg5"
     showguides="false"><sodipodi:guide
       position="102.99374,167.34878"
       orientation="1,0"
       id="guide1808"
       inkscape:locked="false" /></sodipodi:namedview><defs
     id="defs2" /><path
     id="path143"
     style="fill:#037679;fill-opacity:1;fill-rule:evenodd;stroke:none;stroke-width:0.79375;stroke-dasharray:none"
     d="M 100.61006,61.960938 C 86.54035,62.09399 72.452465,64.513737 59.289905,69.533942 45.040073,74.864437 31.79888,82.575515 19.04757,90.751953 c -2.40654,1.508769 -4.91731,2.8785 -7.19922,4.568359 -1.07738,1.153378 -0.43703,2.945798 0.48559,3.981198 1.80475,2.22202 4.22969,4.11913 7.06519,4.75708 3.08621,0.49704 5.96547,-1.12558 8.52929,-2.63086 7.81972,-4.75192 15.706793,-9.425426 23.873194,-13.532754 7.889956,-3.962816 16.196531,-7.424044 24.795369,-9.501053 9.509918,-2.323575 19.304524,-3.501842 29.105077,-3.165146 9.85225,0.331384 19.61982,2.381208 28.94556,5.555342 9.86456,3.331303 19.34721,7.903911 28.50794,12.890927 4.35008,2.360754 8.68989,4.799884 13.38237,6.428774 6.13808,2.28701 12.69475,3.06415 19.18737,3.55243 6.07264,0.38661 12.16367,0.51596 18.24879,0.51582 10.16924,-0.0929 20.52433,-1.00895 30.09067,-4.67872 5.07892,-1.981 9.92383,-4.592231 14.36213,-7.755213 1.51426,-1.2937 2.4412,-3.33148 2.13435,-5.33384 -0.84046,-0.611528 -1.85846,0.01495 -2.7778,0.03364 -10.89374,1.750503 -21.77495,3.705005 -32.79057,4.411313 -12.09342,0.876584 -24.32141,0.774099 -36.28769,-1.278069 -4.72451,-0.818053 -9.36703,-2.184743 -13.67544,-4.308573 -7.32706,-3.443622 -14.22991,-7.719243 -21.63067,-11.01157 -13.80345,-6.428557 -28.61972,-11.040606 -43.8769,-12.022522 -2.96562,-0.204554 -5.93912,-0.287776 -8.91211,-0.267578 z" /><path
     id="path147"
     style="fill:#037679;fill-opacity:1;fill-rule:evenodd;stroke:none;stroke-width:0.79375;stroke-dasharray:none"
     d="m 238.20381,147.37305 c -2.49675,0.21125 -5.04298,1.79491 -5.83593,4.25 -0.66211,2.55369 0.68447,5.01031 1.49804,7.35547 1.37724,3.7642 2.36589,7.69556 1.90808,11.7338 -0.58797,4.83801 -3.03138,9.36011 -6.60717,12.64804 -3.99112,3.79045 -9.2301,6.0696 -14.7158,6.62004 -7.22129,0.92319 -14.5862,0.58588 -21.81612,0.10748 -16.09186,-1.19453 -32.03608,-3.96034 -47.77724,-7.51897 -10.5654,-2.41968 -21.0728,-5.37794 -31.39921,-8.74953 -1.89124,-0.63617 -4.04375,-1.18782 -5.94068,-0.25743 -3.27567,1.31933 -5.13245,5.32019 -3.98611,8.66892 0.63156,2.10116 2.38368,3.78334 4.48961,4.37895 6.61003,2.64829 13.49836,4.50068 20.34898,6.40483 6.68464,1.79988 13.47572,3.15463 20.2858,4.38735 14.6429,2.76345 29.34804,5.41686 44.22579,6.51078 6.40291,0.38162 12.83318,0.44722 19.2385,0.0989 10.14565,-0.79544 20.19934,-4.81611 27.54403,-11.96087 5.66521,-5.52262 9.5392,-13.01159 10.13488,-20.95494 0.54058,-6.44978 -0.77595,-13.11668 -4.03685,-18.73255 -1.50943,-2.48 -3.90672,-4.80125 -6.95148,-4.98646 -0.20228,-0.0148 -0.40462,-0.008 -0.60712,-0.004 z" /><circle
     style="fill:#01b6b7;fill-opacity:1;stroke:none;stroke-width:0.79375;stroke-linecap:square;stroke-linejoin:round;stroke-dasharray:none;paint-order:stroke markers fill"
     id="circle149"
     cx="102.99374"
     cy="121.26176"
     r="17.677219" /><path
     id="path153"
     style="fill:#046767;fill-opacity:1;stroke:none;stroke-width:0.264583;stroke-dasharray:none"
     d="m 82.799518,97.257812 c -4.021837,0.108232 -7.450418,2.476573 -10.761719,4.494138 -1.517576,0.95443 -3.035108,1.90893 -4.552734,2.86328 0.751749,0.1495 1.50855,0.27443 2.255859,0.44532 -2.689311,3.36823 -4.474615,7.42828 -5.140631,11.68714 -1.44445,8.57333 1.091692,17.77774 6.892585,24.28161 -0.360577,1.13174 0.851535,1.87883 1.486328,2.61718 2.980856,2.77237 7.047886,3.94287 10.968264,4.6202 4.791358,0.76107 9.767303,0.2526 14.311362,-1.44153 0.584558,-0.0333 3.228178,0.47566 2.670048,-0.0432 -0.90959,-0.42005 -4.71102,-1.5588 -5.675679,-1.84763 -2.847574,-0.647 -4.938982,-1.48497 -7.480608,-2.98219 -6.828677,-3.69636 -11.5344,-10.9162 -12.290559,-18.62922 -0.659313,-6.0617 1.279851,-12.39659 5.435299,-16.89401 1.235835,-1.28322 2.515624,-2.6363 4.154518,-3.39223 2.49958,-1.0239 5.533301,-2.12983 8.077885,-2.96487 1.033207,-0.263403 0.694449,-0.467831 -0.260371,-0.776888 -2.827846,-1.021219 -5.796656,-1.691938 -8.789063,-2.011719 -0.433365,-0.02499 -0.866886,-0.03546 -1.300781,-0.02539 z"
     sodipodi:nodetypes="scccccccccccccccccss" /><path
     id="path151"
     style="fill:#046767;fill-opacity:1;fill-rule:evenodd;stroke:none;stroke-width:0.79375;stroke-linecap:square;stroke-linejoin:round;paint-order:stroke markers fill"
     d="m 227.86646,161.29277 a 17.677219,17.677219 0 0 1 -17.67722,17.67722 17.677219,17.677219 0 0 1 -17.67722,-17.67722 17.677219,17.677219 0 0 1 17.67722,-17.67722 17.677219,17.677219 0 0 1 17.67722,17.67722 z m -9.85862,0 a 7.818593,7.818593 0 0 1 -7.8186,7.81859 7.818593,7.818593 0 0 1 -7.81859,-7.81859 7.818593,7.818593 0 0 1 7.81859,-7.81859 7.818593,7.818593 0 0 1 7.8186,7.81859 z" /><path
     id="path145"
     style="fill:#037679;fill-opacity:1;fill-rule:evenodd;stroke:none;stroke-width:0.264583;stroke-dasharray:none"
     d="m 98.916706,88.201172 c -13.590367,0.556286 -27.084951,3.682743 -39.47248,9.319054 -7.236485,3.273444 -14.222961,7.100954 -20.890802,11.415324 -6.316954,4.16584 -12.249764,8.88313 -18.021484,13.76953 4.32368,4.1911 9.43148,7.4336 14.35581,10.85553 6.024412,4.08052 12.080712,8.13231 18.412454,11.72624 11.67496,6.24509 24.045478,11.61108 37.194367,13.74015 7.337427,1.21749 14.887609,1.31839 22.210619,-0.0585 11.99471,-2.14898 23.34785,-7.0976 33.71852,-13.40578 8.56354,-5.24169 16.44443,-11.55985 23.59846,-18.59593 1.89393,0.70507 3.88657,1.15036 5.85351,1.62327 7.76391,1.71357 15.73732,2.26538 23.67301,2.36079 8.07009,0.0572 16.24406,-0.81349 23.85453,-3.62287 4.3895,-1.58862 8.69832,-3.64422 12.28517,-6.67293 0.78463,-0.63714 1.25273,-1.57241 1.37089,-2.56131 0.33155,-0.73626 -0.33469,-1.6109 -1.13867,-1.34375 -3.33474,0.36801 -6.6896,0.64227 -10.03787,0.90232 -5.29387,0.3183 -10.67342,0.30757 -16.00617,0.23464 -7.14846,-0.16846 -14.30733,-0.5233 -21.37979,-1.36938 -4.87782,-0.5577 -9.77726,-1.50614 -14.23236,-3.64603 -5.67591,-2.5879 -11.05824,-5.92775 -16.67686,-8.75966 -12.80548,-6.636087 -26.30535,-12.347167 -40.6017,-14.748307 -5.96405,-0.982869 -12.02717,-1.399308 -18.069154,-1.162401 z m 4.498044,13.449218 c 10.39652,-0.018 20.76485,2.03826 30.46296,5.64662 8.12558,3.00543 15.90499,6.86856 23.3855,11.25253 0.77789,0.26495 -0.17894,0.66957 -0.47537,1.0055 -3.74069,3.09644 -7.76049,5.95153 -11.75632,8.76731 -6.10759,4.25073 -12.61876,7.91883 -19.45149,10.8702 -4.42767,1.92901 -9.17909,3.61186 -13.8352,4.75081 -3.83869,0.90552 -7.76421,1.48217 -11.67851,0.70452 -8.152044,-1.13639 -16.394886,-2.36767 -24.175794,-4.90247 -11.207329,-4.4662 -21.650709,-10.62966 -31.507024,-17.52275 3.23983,-2.25896 6.682595,-4.32749 10.132389,-6.35907 5.99172,-3.47468 12.137525,-6.70412 18.49128,-9.46597 4.709397,-1.83721 9.659351,-2.9165 14.631337,-3.7048 5.236208,-0.77554 10.477829,-1.00709 15.776242,-1.04243 z" /><path
     id="path155"
     style="fill:#037679;fill-opacity:1;fill-rule:evenodd;stroke:none;stroke-width:0.79375;stroke-dasharray:none"
     d="m 49.410846,157.26172 c -4.533068,0.13791 -8.221471,5.12167 -6.846613,9.48591 0.701463,2.31138 2.678001,3.87094 4.054057,5.76486 6.729133,8.08053 14.288218,15.74308 23.561256,20.87657 4.807068,2.60105 9.897641,4.75676 15.220757,6.02649 2.324714,0.3002 4.793046,-0.59872 6.297653,-2.41555 0.174337,-1.40788 -1.007549,-2.40352 -2.008359,-3.17188 -9.219204,-8.20957 -18.623444,-16.27614 -26.875499,-25.49354 -2.773977,-3.04316 -5.394997,-6.22724 -8.090752,-9.33458 -1.507167,-1.15492 -3.40236,-1.83995 -5.3125,-1.73828 z" /></svg>
