<?xml version="1.0" encoding="UTF-8" standalone="no"?>
<!-- Created with Inkscape (http://www.inkscape.org/) -->

<svg
   width="270.93332mm"
   height="270.93332mm"
   viewBox="0 0 270.93332 270.93332"
   version="1.1"
   id="svg5"
   xml:space="preserve"
   inkscape:version="1.2.1 (9c6d41e410, 2022-07-14)"
   sodipodi:docname="main.svg"
   inkscape:export-filename="16.png"
   inkscape:export-xdpi="1.5"
   inkscape:export-ydpi="1.5"
   xmlns:inkscape="http://www.inkscape.org/namespaces/inkscape"
   xmlns:sodipodi="http://sodipodi.sourceforge.net/DTD/sodipodi-0.dtd"
   xmlns="http://www.w3.org/2000/svg"
   xmlns:svg="http://www.w3.org/2000/svg"><sodipodi:namedview
     id="namedview7"
     pagecolor="#ffffff"
     bordercolor="#666666"
     borderopacity="1.0"
     inkscape:showpageshadow="2"
     inkscape:pageopacity="0.0"
     inkscape:pagecheckerboard="0"
     inkscape:deskcolor="#d1d1d1"
     inkscape:document-units="mm"
     showgrid="false"
     inkscape:zoom="0.70710678"
     inkscape:cx="475.88286"
     inkscape:cy="608.11183"
     inkscape:window-width="1920"
     inkscape:window-height="1017"
     inkscape:window-x="-8"
     inkscape:window-y="-8"
     inkscape:window-maximized="1"
     inkscape:current-layer="svg5"
     showguides="false"><sodipodi:guide
       position="102.99374,167.34878"
       orientation="1,0"
       id="guide1808"
       inkscape:locked="false" /></sodipodi:namedview><defs
     id="defs2" /><path
     style="fill:#037679;fill-opacity:1;fill-rule:evenodd;stroke:none;stroke-width:0.79375;stroke-dasharray:none"
     d="m 18.91771,114.20911 c -2.90712,-0.95014 -6.8209,-4.81664 -5.94447,-5.87267 2.18609,-1.57958 4.52625,-2.79735 6.87051,-4.30569 31.206313,-20.140769 52.359697,-27.809595 78.713537,-28.53635 21.954693,-0.605441 41.984673,4.929396 66.644033,18.415587 9.72263,5.317302 14.55529,7.345223 20.4636,8.587103 16.2087,3.40695 37.53633,3.13839 61.19132,-0.7705 8.0052,-1.32283 8.01136,-1.32133 12.09824,-1.963486 -0.0151,0.821806 -0.81086,2.315546 -2.51946,3.402136 -11.21479,7.13207 -21.60397,11.77637 -47.54649,11.3105 -24.02449,-0.43143 -30.5715,-2.31622 -43.65625,-9.56861 -31.61145,-17.521038 -54.23866,-22.211521 -80.163673,-17.963 -17.645075,2.891625 -31.554749,8.896204 -57.948817,25.01555 -3.8229,2.33471 -6.06215,2.94883 -8.20208,2.24943 z"
     id="path1391"
     sodipodi:nodetypes="sccsssscssssss" /><path
     style="fill:#037679;fill-opacity:1;fill-rule:evenodd;stroke:none;stroke-width:0.79375;stroke-dasharray:none"
     d="m 190.02565,194.18939 c -17.95644,-1.72263 -32.83526,-4.71847 -49.13503,-7.81896 -11.02915,-2.05567 -32.54256,-8.46997 -34.39618,-10.25535 -3.55071,-3.41998 -1.18233,-9.42759 3.71663,-9.42759 0.40946,0 2.77689,0.6685 5.26097,1.48556 38.31532,12.60261 88.12836,19.43392 104.60844,14.34589 7.24102,-2.23557 13.41029,-7.75704 15.91021,-14.23956 2.29058,-5.93967 1.97239,-11.24809 -1.14695,-19.13496 -1.65082,-4.17391 -1.46316,-5.66301 0.91173,-7.23464 4.35879,-2.88451 9.13133,1.36343 11.48844,10.22563 5.38214,20.2357 -9.47588,39.07369 -33.2757,42.18918 -4.39621,0.57548 -17.09767,0.50376 -23.94256,-0.1352 z"
     id="path1359"
     sodipodi:nodetypes="ccsssssssssc" /><path
     id="path1038"
     style="display:inline;fill:#046767;fill-opacity:1;stroke:none;stroke-width:0.264583;stroke-dasharray:none"
     d="m 99.086453,146.16756 c -21.100559,-3.65943 -28.855047,-30.18282 -12.697499,-43.34468 0.932153,-0.75933 1.892906,-1.87494 8.651991,-2.52124 -9.160027,-2.381326 -10.26381,-2.244316 -19.079321,3.35302 0.640473,-0.0245 0.573352,0.41119 0.361301,0.69946 -0.140514,0.19102 -0.822947,1.04861 -1.51683,1.90554 -7.359385,9.08864 -6.581172,24.25138 1.722861,33.5683 1.345531,1.50965 1.741234,2.1919 0.975135,2.11627 2.82719,3.47818 12.453135,6.6592 21.582362,4.22333 z"
     sodipodi:nodetypes="csccssscc" /><path
     id="path1040"
     style="display:inline;fill:#037679;fill-opacity:1;fill-rule:evenodd;stroke:none;stroke-width:0.264583;stroke-dasharray:none"
     d="M 98.292703,158.30521 C 84.819407,157.44138 71.526954,153.26162 53.421771,143.58146 46.958345,139.89761 26.66381,126.50606 22.92334,122.77408 c 7.14275,-6.0448 14.88139,-11.89762 23.301612,-16.69455 15.310226,-8.689519 26.362878,-12.691465 39.540845,-14.917725 25.168853,-4.251977 46.474803,0.643159 77.570233,17.822125 11.57057,6.39227 14.45384,7.52908 22.13688,8.72812 11.42829,1.78354 33.00501,2.38321 44.3177,1.23173 3.46694,-0.35289 3.49022,-0.35448 5.54772,-0.51429 -0.0435,0.56727 -0.60082,0.97977 -1.43808,1.65261 -4.4285,3.55884 -12.46294,6.83208 -20.19296,8.22664 -11.71864,2.11413 -31.33069,0.95336 -42.19761,-2.49752 l -1.9331,-0.61388 -2.70131,2.58545 c -20.93294,20.03504 -47.53044,31.87216 -68.582567,30.52242 z m -21.9279,-16.70059 c -0.705871,-0.21115 -1.268088,-0.46857 -2.149182,-0.8243 -8.50579,-3.43412 -17.945123,-8.58422 -27.299828,-14.89483 -5.977207,-4.03217 -5.903193,-3.37411 -0.760918,-6.76524 9.454438,-6.23483 24.156984,-13.77384 28.85561,-15.15175 7.295679,-2.25494 13.957024,-3.36658 21.445986,-3.71409 1.303521,-0.0745 2.772218,-0.12844 4.437119,-0.16658 13.58516,-0.311251 25.56497,2.15526 39.73244,8.18048 7.19378,3.05941 19.56347,9.69335 19.39284,10.40049 -0.24114,0.99929 -12.19921,9.95749 -18.86367,14.13141 -14.46957,9.06223 -31.82715,15.0002 -39.81979,13.62224 -8.300148,-1.08961 -16.911854,-2.40716 -24.970607,-4.81783 z"
     sodipodi:nodetypes="scccsssscssscssssssccsssscs" /><circle
     style="fill:#01b6b7;fill-opacity:1;stroke:none;stroke-width:0.79375;stroke-linecap:square;stroke-linejoin:round;stroke-dasharray:none;paint-order:stroke markers fill"
     id="circle1180"
     cx="102.99374"
     cy="121.26176"
     r="17.677219" /><path
     id="circle1182"
     style="fill:#046767;fill-opacity:1;fill-rule:evenodd;stroke:none;stroke-width:0.79375;stroke-linecap:square;stroke-linejoin:round;paint-order:stroke markers fill"
     d="m 227.86646,161.29277 a 17.677219,17.677219 0 0 1 -17.67722,17.67722 17.677219,17.677219 0 0 1 -17.67722,-17.67722 17.677219,17.677219 0 0 1 17.67722,-17.67722 17.677219,17.677219 0 0 1 17.67722,17.67722 z m -9.85862,0 a 7.818593,7.818593 0 0 1 -7.8186,7.81859 7.818593,7.818593 0 0 1 -7.81859,-7.81859 7.818593,7.818593 0 0 1 7.81859,-7.81859 7.818593,7.818593 0 0 1 7.8186,7.81859 z" /><path
     style="fill:#037679;fill-opacity:1;fill-rule:evenodd;stroke:none;stroke-width:0.79375;stroke-dasharray:none"
     d="m 53.169126,153.20228 c 7.114762,8.90296 15.931519,18.03316 26.12445,27.0022 6.091326,5.35992 6.094066,5.36563 9.178175,8.12304 -0.645748,0.50853 -2.30586,0.83799 -4.228589,0.20308 -12.620244,-4.16742 -22.79196,-9.27044 -38.852802,-29.64888 -2.037286,-4.53898 3.333761,-9.21025 7.778766,-5.67944 z"
     id="path17402"
     sodipodi:nodetypes="cscscc" /></svg>
