<?xml version="1.0" encoding="UTF-8" standalone="no"?>
<!-- Created with Inkscape (http://www.inkscape.org/) -->

<svg
   sodipodi:docname="round.svg"
   inkscape:version="1.2.1 (9c6d41e410, 2022-07-14)"
   xml:space="preserve"
   id="svg5"
   version="1.1"
   viewBox="0 0 270.93301 270.93301"
   height="270.93301mm"
   width="270.93301mm"
   inkscape:export-filename="Final 2.png"
   inkscape:export-xdpi="88.959999"
   inkscape:export-ydpi="88.959999"
   xmlns:inkscape="http://www.inkscape.org/namespaces/inkscape"
   xmlns:sodipodi="http://sodipodi.sourceforge.net/DTD/sodipodi-0.dtd"
   xmlns="http://www.w3.org/2000/svg"
   xmlns:svg="http://www.w3.org/2000/svg"><sodipodi:namedview
     id="namedview7"
     pagecolor="#ffffff"
     bordercolor="#666666"
     borderopacity="1.0"
     inkscape:showpageshadow="2"
     inkscape:pageopacity="0.0"
     inkscape:pagecheckerboard="0"
     inkscape:deskcolor="#d1d1d1"
     inkscape:document-units="mm"
     showgrid="false"
     inkscape:zoom="0.3535534"
     inkscape:cx="618.01131"
     inkscape:cy="455.37676"
     inkscape:window-width="1920"
     inkscape:window-height="1017"
     inkscape:window-x="-8"
     inkscape:window-y="-8"
     inkscape:window-maximized="1"
     inkscape:current-layer="svg5"
     showguides="false"><sodipodi:guide
       position="214.0479,65.633982"
       orientation="0,-1"
       id="guide21844"
       inkscape:locked="false" /><sodipodi:guide
       position="23.556567,152.01325"
       orientation="54.567458,37.606677"
       id="guide24026"
       inkscape:locked="false" /></sodipodi:namedview><defs
     id="defs2" /><circle
     style="fill:#01b6b7;fill-opacity:1;fill-rule:evenodd;stroke:none;stroke-width:0.24541;stroke-linecap:square;stroke-linejoin:round;paint-order:stroke markers fill"
     id="path16502"
     cx="135.46651"
     cy="135.46649"
     r="135.46651" /><path
     id="path7532"
     style="fill:#037679;fill-opacity:1;fill-rule:evenodd;stroke:none;stroke-width:0.736231;stroke-dasharray:none"
     d="m 105.03035,79.801976 c -1.26033,-0.0098 -2.52583,0.0032 -3.79858,0.03834 -24.444009,0.67413 -44.064729,7.78703 -73.00958,26.468374 h -9.3e-4 c -2.17414,1.39872 -4.34352,2.52864 -6.37108,3.99415 h -9.3e-4 c -0.41809,0.50563 0.35253,1.70238 1.55922,2.86536 l 8.80745,8.8017 c 0.14767,0.1483 0.28662,0.28795 0.4194,0.42611 -0.52029,0.43213 -1.04369,0.86286 -1.5573,1.29751 l 9.3e-4,9.3e-4 27.083806,27.59142 c -0.726494,-0.37017 -1.460504,-0.53702 -2.162679,-0.52869 v 0.009 c -3.05186,0.0343 -5.499519,3.26124 -4.082343,6.41854 3.784831,4.80222 7.21487,8.68241 10.421312,11.87365 L 163.13796,268.0044 A 135.4665,135.4665 0 0 0 270.93302,135.46651 135.4665,135.4665 0 0 0 270.31518,122.6467 l -20.30914,-20.29669 h -9.3e-4 c -3.78988,0.59547 -3.79636,0.59478 -11.22033,1.82188 h -0.002 c -21.9399,3.62481 -41.72159,3.8743 -56.75541,0.71418 h -9.3e-4 c -5.47967,-1.152 -9.96252,-3.03312 -18.97999,-7.964805 l -9.3e-4,-4.8e-4 C 141.60272,85.194078 123.93402,79.94908 105.03035,79.801976 Z" /><g
     id="g363"
     style="fill:#fcffff;fill-opacity:1"
     transform="matrix(0.92753517,0,0,0.92753517,137.70096,9.8164089)"><path
       style="fill:#fcffff;fill-opacity:1;fill-rule:evenodd;stroke:none;stroke-width:0.79375;stroke-dasharray:none"
       d="m -118.95798,114.20911 c -2.90712,-0.95014 -6.8209,-4.81664 -5.94447,-5.87267 2.18609,-1.57958 4.52625,-2.79735 6.87051,-4.30569 31.206313,-20.140769 52.359697,-27.809595 78.713537,-28.53635 21.954692,-0.605441 41.9846738,4.929396 66.644032,18.415587 9.722636,5.317302 14.555287,7.345223 20.463605,8.587103 16.208697,3.40695 37.536331,3.13839 61.191316,-0.7705 8.0052,-1.32283 8.01136,-1.32133 12.09824,-1.963486 -0.0151,0.821806 -0.81086,2.315546 -2.51946,3.402136 -11.21479,7.13207 -21.603967,11.77637 -47.546489,11.3105 -24.024488,-0.43143 -30.571496,-2.31622 -43.656247,-9.56861 -31.6114578,-17.521038 -54.238668,-22.211521 -80.163677,-17.963 -17.645075,2.891625 -31.554749,8.896204 -57.948817,25.01555 -3.8229,2.33471 -6.06215,2.94883 -8.20208,2.24943 z"
       id="path1391"
       sodipodi:nodetypes="sccsssscssssss" /><path
       id="path1379"
       style="fill:#fcffff;fill-opacity:1;fill-rule:evenodd;stroke:none;stroke-width:0.264583;stroke-dasharray:none"
       d="m -39.582987,158.30521 c -13.473296,-0.86383 -26.765749,-5.04359 -44.870932,-14.72375 -6.463426,-3.68385 -26.757961,-17.0754 -30.498431,-20.80738 7.14275,-6.0448 14.88139,-11.89762 23.301612,-16.69455 15.310226,-8.689519 26.362878,-12.691465 39.540845,-14.917725 25.168855,-4.251977 46.4748012,0.643159 77.570231,17.822125 11.570575,6.39227 14.453838,7.52908 22.13688,8.72812 11.428292,1.78354 33.005015,2.38321 44.317706,1.23173 3.46694,-0.35289 3.490215,-0.35448 5.547712,-0.51429 -0.0435,0.56727 -0.600811,0.97977 -1.438072,1.65261 -4.4285,3.55884 -12.462941,6.83208 -20.192964,8.22664 -11.718639,2.11413 -31.330685,0.95336 -42.197606,-2.49752 l -1.933101,-0.61388 -2.701316,2.58545 c -20.9329331,20.03504 -47.530436,31.87216 -68.582564,30.52242 z m 3.042709,-11.88276 c -0.363802,-0.0627 -1.375834,-0.23794 -2.248959,-0.38936 -21.803687,-4.17582 -34.149955,-27.26863 -12.795493,-43.27146 2.424977,-1.81725 5.723549,-2.47037 14.602635,-2.6738 13.585157,-0.311251 25.564961,2.15526 39.7324397,8.18048 7.1937745,3.05941 19.5634683,9.69335 19.3928333,10.40049 -0.241136,0.99929 -12.1992044,9.95749 -18.8636666,14.13141 -14.4695694,9.06223 -31.8271484,15.0002 -39.8197894,13.62224 z m -27.119791,-5.64213 c -8.505795,-3.43411 -17.945123,-8.58422 -27.299828,-14.89483 -5.977207,-4.03217 -5.90319,-3.37411 -0.760918,-6.76524 12.016403,-7.92434 32.510548,-17.95546 30.168055,-14.76613 -3.112824,11.25289 -2.879624,26.32234 0.206031,35.47384 2.262367,2.53832 1.941758,2.67031 -2.31334,0.95236 z"
       sodipodi:nodetypes="scccsssscssscssscsssssssssccs" /><path
       style="fill:#fcffff;fill-opacity:1;fill-rule:evenodd;stroke:none;stroke-width:0.79375;stroke-dasharray:none"
       d="M 52.149961,194.18939 C 34.193518,192.46676 19.314698,189.47092 3.0149281,186.37043 -8.0142223,184.31476 -29.527627,177.90046 -31.38125,176.11508 c -3.550706,-3.41998 -1.182333,-9.42759 3.716628,-9.42759 0.409459,0 2.776895,0.6685 5.26097,1.48556 38.315324,12.60261 88.128367,19.43392 104.608447,14.34589 7.241013,-2.23557 13.410281,-7.75704 15.910205,-14.23956 2.29058,-5.93967 1.97239,-11.24809 -1.146945,-19.13496 -1.650825,-4.17391 -1.463167,-5.66301 0.911725,-7.23464 4.35879,-2.88451 9.13133,1.36343 11.48844,10.22563 5.38214,20.2357 -9.475876,39.07369 -33.275702,42.18918 -4.396208,0.57548 -17.097668,0.50376 -23.942557,-0.1352 z"
       id="path1359"
       sodipodi:nodetypes="ccsssssssssc" /><circle
       style="fill:#fcffff;fill-opacity:1;stroke:none;stroke-width:0.79375;stroke-linecap:square;stroke-linejoin:round;stroke-dasharray:none;paint-order:stroke markers fill"
       id="circle1180"
       cx="-34.881954"
       cy="121.26176"
       r="17.677219" /><path
       id="circle1182"
       style="fill:#fcffff;fill-opacity:1;fill-rule:evenodd;stroke:none;stroke-width:0.79375;stroke-linecap:square;stroke-linejoin:round;paint-order:stroke markers fill"
       d="m 89.990772,161.29277 a 17.677219,17.677219 0 0 1 -17.677219,17.67722 17.677219,17.677219 0 0 1 -17.67722,-17.67722 17.677219,17.677219 0 0 1 17.67722,-17.67722 17.677219,17.677219 0 0 1 17.677219,17.67722 z m -9.858626,0 a 7.818593,7.818593 0 0 1 -7.818593,7.81859 7.818593,7.818593 0 0 1 -7.818593,-7.81859 7.818593,7.818593 0 0 1 7.818593,-7.81859 7.818593,7.818593 0 0 1 7.818593,7.81859 z" /><path
       id="path10123"
       style="fill:#fcffff;fill-opacity:1;stroke:none;stroke-width:0.264583;stroke-dasharray:none"
       d="m -38.789237,146.03309 c -21.100559,-3.65943 -28.855047,-30.04835 -12.697499,-43.21021 0.932153,-0.75933 1.892906,-1.82817 8.651991,-2.47447 -9.24754,0.6841 -12.724994,1.48502 -18.98837,3.40133 0.640473,-0.0245 0.482401,0.31611 0.27035,0.60438 -0.140514,0.19102 -0.822947,1.04861 -1.51683,1.90554 -7.359385,9.08864 -6.581172,24.25138 1.722861,33.5683 1.345531,1.50965 1.777408,2.16813 1.011309,2.0925 3.616346,1.11071 13.489484,3.33093 21.546188,4.11263 z"
       sodipodi:nodetypes="csccssscc" /><path
       style="fill:#fcffff;fill-opacity:1;fill-rule:evenodd;stroke:none;stroke-width:0.79375;stroke-dasharray:none"
       d="m -84.706564,153.20228 c 7.114762,8.90296 15.931519,18.03316 26.12445,27.0022 6.091326,5.35992 6.094066,5.36563 9.178175,8.12304 -0.645748,0.50853 -2.30586,0.83799 -4.228589,0.20308 -12.620244,-4.16742 -22.79196,-9.27044 -38.852802,-29.64888 -2.037286,-4.53898 3.333761,-9.21025 7.778766,-5.67944 z"
       id="path17402"
       sodipodi:nodetypes="cscscc" /></g></svg>
