<?xml version="1.0" encoding="UTF-8" standalone="no"?>
<svg
   xmlns:dc="http://purl.org/dc/elements/1.1/"
   xmlns:cc="http://creativecommons.org/ns#"
   xmlns:rdf="http://www.w3.org/1999/02/22-rdf-syntax-ns#"
   xmlns:svg="http://www.w3.org/2000/svg"
   xmlns="http://www.w3.org/2000/svg"
   xmlns:xlink="http://www.w3.org/1999/xlink"
   xmlns:sodipodi="http://sodipodi.sourceforge.net/DTD/sodipodi-0.dtd"
   xmlns:inkscape="http://www.inkscape.org/namespaces/inkscape"
   version="1.0"
   width="1000"
   height="1000"
   viewBox="0 0 800 800"
   preserveAspectRatio="xMidYMid meet"
   id="svg2"
   inkscape:version="0.92.3 (2405546, 2018-03-11)"
   sodipodi:docname="icon.svg">
  <defs
     id="defs14">
    <linearGradient
       id="linearGradient3646">
      <stop
         style="stop-color:#002b22;stop-opacity:1;"
         offset="0"
         id="stop3648" />
      <stop
         style="stop-color:#0b2817;stop-opacity:0;"
         offset="1"
         id="stop3650" />
    </linearGradient>
    <linearGradient
       id="linearGradient3636">
      <stop
         style="stop-color:#ffffff;stop-opacity:1;"
         offset="0"
         id="stop3638" />
      <stop
         style="stop-color:#ffffff;stop-opacity:0;"
         offset="1"
         id="stop3640" />
    </linearGradient>
    <linearGradient
       id="linearGradient3597">
      <stop
         style="stop-color:#00d9a4;stop-opacity:1;"
         offset="0"
         id="stop3599" />
      <stop
         style="stop-color:#00788e;stop-opacity:1;"
         offset="1"
         id="stop3601" />
    </linearGradient>
    <radialGradient
       inkscape:collect="always"
       xlink:href="#linearGradient3597"
       id="radialGradient2831"
       gradientUnits="userSpaceOnUse"
       gradientTransform="matrix(1,0,0,0.53813626,0,158.30072)"
       cx="354.69772"
       cy="122.87802"
       fx="354.69772"
       fy="122.87802"
       r="591.6167" />
    <linearGradient
       inkscape:collect="always"
       xlink:href="#linearGradient3636"
       id="linearGradient2833"
       gradientUnits="userSpaceOnUse"
       x1="389.67825"
       y1="200.84236"
       x2="389.67825"
       y2="272.28284" />
    <linearGradient
       inkscape:collect="always"
       xlink:href="#linearGradient3646"
       id="linearGradient2835"
       gradientUnits="userSpaceOnUse"
       x1="388.20056"
       y1="202.89275"
       x2="388.20056"
       y2="273.87473" />
  </defs>
  <sodipodi:namedview
     pagecolor="#ffffff"
     bordercolor="#666666"
     borderopacity="1"
     objecttolerance="10"
     gridtolerance="10"
     guidetolerance="10"
     inkscape:pageopacity="0"
     inkscape:pageshadow="2"
     inkscape:window-width="1920"
     inkscape:window-height="1017"
     id="namedview12"
     showgrid="false"
     inkscape:zoom="0.49658447"
     inkscape:cx="1087.2281"
     inkscape:cy="220.55793"
     inkscape:window-x="-8"
     inkscape:window-y="-8"
     inkscape:window-maximized="1"
     inkscape:current-layer="svg2" />
  <metadata
     id="metadata4">
Created by potrace 1.7, written by Peter Selinger 2001-2005
<rdf:RDF>
  <cc:Work
     rdf:about="">
    <dc:format>image/svg+xml</dc:format>
    <dc:type
       rdf:resource="http://purl.org/dc/dcmitype/StillImage" />
    <dc:title></dc:title>
  </cc:Work>
</rdf:RDF>
</metadata>
  <g
     id="g2827"
     transform="matrix(0.8394759,0,0,0.8394759,-2.4899317,169.87362)">
    <path
       transform="scale(0.8)"
       style="fill:url(#radialGradient2831);fill-opacity:1;stroke:#002b22;stroke-width:8;stroke-linecap:round;stroke-linejoin:round;stroke-miterlimit:4;stroke-dasharray:none;stroke-opacity:1"
       d="m 398.53125,24.375 c -5.71094,0.01719 -11.65625,0.15 -18.03125,0.375 -12.8,0.5 -31.4,2.3875 -48.25,4.9375 -3.55,0.55 -9.4,1.45 -13,2 -13.85,2.1 -56.15,10.9625 -70.75,14.8125 -15.1,4 -36.35,10.65 -46.25,14.5 -1.9,0.75 -5.85,2.25625 -8.75,3.40625 -2.9,1.1 -6.65625,2.6375 -8.40625,3.4375 -1.7,0.75 -3.24375,1.40625 -3.34375,1.40625 -0.9,0 -19.05,8.79375 -27,13.09375 -38.2,20.6 -71.90625,47.14375 -127.90625,100.84375 -16.5,15.85 -17.9375,17.725 -18.9375,23.875 -1.2,7.75 2.7,14.625 10.5,18.625 2.15,1.1 6.65625,1.55 9.90625,1 5.15,-0.9 7.88125,-3.05 24.78125,-19.25 35.4,-34.05 63.75625,-58.35 85.65625,-73.5 35.6,-24.65 72.25,-40.875 120.25,-53.375 13.2,-3.4 53.45,-11.75 66.25,-13.75 21.45,-3.3 32.2,-4.6625 47.5,-6.0625 7.25,-0.65 45.3375,-0.6375 52.6875,0.0625 22.65,2.05 26.7625,2.55 44.5625,5.5 15.85,2.6 19.9,3.3375 32,5.9375 4,0.85 8.95,1.9125 11,2.3125 5.7,1.2 28.55,6.5375 34.75,8.1875 40.7,10.7 70.0375,20.3 100.9375,33 23.5,9.65 53.3625,24.04375 74.3125,35.84375 3.45,1.95 11.55,6.50625 18,10.15625 6.45,3.65 17.15,9.90625 23.75,13.90625 6.6,3.95 14.8,8.8875 18.25,10.9375 3.45,2.1 7.7,4.6625 9.5,5.8125 1.8,1.1 4.65625,2.8875 6.40625,3.9375 1.7,1.05 4.6,2.85 6.5,4 1.85,1.15 4.69375,2.90625 6.34375,3.90625 5.05,3.1 9.3,5.74375 13.5,8.34375 5.85,3.7 7.7625,4.55625 11.8125,5.40625 3.3,0.65 22.4,0.75 170.25,0.75 94.95,0 167.15,-0.1875 168,-0.4375 0.8,-0.25 2.4375,-0.775 3.6875,-1.125 5.7,-1.65 10.5,-7.43125 11.5,-13.78125 1.15,-6.95 -2.2875,-14.25625 -8.1875,-17.65625 -5.65,-3.2 6.3875,-3 -173.5625,-3 h -164 L 840,179.84375 C 837.4,178.24375 829.3,173.25 822,168.75 749.85,124.3 706.45,100.95625 663,83.15625 c -20.25,-8.3 -47.15,-17.99375 -62.75,-22.59375 -1.35,-0.4 -6.3,-1.8625 -11,-3.3125 -7.85,-2.35 -15.1,-4.35 -28,-7.75 -9.3,-2.45 -12,-3.15625 -16.5,-4.15625 -2.45,-0.6 -6.95,-1.64375 -10,-2.34375 -12.4,-2.9 -16.00625,-3.7 -23.65625,-5.25 -2.65,-0.5 -7.54375,-1.4875 -10.84375,-2.1875 -10,-2.15 -40.9,-7.11875 -50.75,-8.21875 -18.75,-2.1 -33.83594,-3.020312 -50.96875,-2.96875 z m 4.65625,71.96875 c -12.9,0.05 -24.7875,0.15 -26.4375,0.25 -17.9,0.85 -31.75,2.36875 -43.25,4.71875 -6.9,1.4 -33.95,9.18125 -50.5,14.53125 -10.95,3.55 -31.45,11 -40,14.5 -18.1,7.5 -21.6,9.00625 -27.25,11.65625 -10.75,5.1 -22.95,11.15 -26.25,13 -1.8,1 -4.64375,2.6125 -6.34375,3.5625 -1.75,0.95 -4.65,2.53125 -6.5,3.53125 -1.85,1 -7.35625,4.29375 -12.15625,7.34375 -4.8,3 -10.2,6.36875 -12,7.46875 -3.05,1.9 -5.3,3.44375 -11.25,7.84375 -1.35,1 -5.4,3.9625 -9,6.5625 -8.15,5.85 -27.7,22.1 -35,29 C 83,233.8125 78.9625,237.8 68.3125,249.25 c -8.9,9.55 -11.7625,12.95 -13.0625,15.5 -3.15,6.35 -2.5125,13.54375 1.6875,18.84375 2.4,3.05 19.8625,17.71875 32.0625,26.96875 20,15.15 38.45625,26.69375 58.65625,36.59375 L 160.5625,353.5 160.25,355.6875 c -0.15,1.2 -0.25,9.55 -0.25,18.5 0,8.95 -0.20625,16.61875 -0.40625,16.96875 -0.35,0.5 -3.20625,0.49375 -13.90625,0.0937 -45.55,-1.6 -50.84375,-1.7125 -54.59375,-0.8125 -4.3,1.1 -8.50625,4.26875 -10.90625,8.21875 -1.9,3.2 -3.1,9.05 -2.25,11.25 0.3,0.8 0.5625,1.94375 0.5625,2.59375 0,1.95 3.25,7 9.5,14.75 3.2,4 7.74375,10.05 10.09375,13.5 6.55,9.6 21.85625,35.4 26.40625,44.5 10.65,21.25 19.95,49 24.25,72.25 2.75,14.8 7.3125,49.35 10.3125,78.5 0.95,9.5 2.125,12.4875 6.875,17.4375 11.55,12 30.1625,9.6125 38.0625,-4.9375 3.15,-5.7 3,1.49375 3,-136.90625 0,-106.2 0.0875,-126.40625 0.6875,-126.65625 0.75,-0.3 12.7625,7.3125 43.3125,27.5625 11.95,7.9 25,16.4375 29,18.9375 11.8,7.5 26.55,16.5625 29.75,18.3125 1.65,0.9 6.25,3.5 10.25,5.75 4,2.25 10.95,6.2 15.5,8.75 4.55,2.55 11.5,6.5 15.5,8.75 4,2.25 8.6,4.85 10.25,5.75 1.65,0.9 5.25,2.95 8,4.5 2.75,1.55 6.35,3.6 8,4.5 1.65,0.9 6.4,3.55625 10.5,5.90625 21,11.9 21.6,12.19375 30.5,16.84375 3.6,1.9 6.7625,3.6125 7.0625,3.8125 0.9,0.7 32.0375,16.1375 38.1875,18.9375 24.1,10.95 49.20625,22.6125 54.15625,25.0625 11.05,5.55 28.69375,12.8375 46.59375,19.1875 52.9,18.85 57,20.1625 88.5,28.0625 8.25,2.1 20.75,5.2875 27.75,7.1875 7,1.85 18.05,4.5375 24.5,5.9375 6.45,1.45 12.75,2.825 14,3.125 3.85,0.9 5.80625,1.2875 23.40625,5.1875 22.35,4.9 44.44375,9.3125 59.09375,11.8125 6.45,1.1 15.7,2.65 20.5,3.5 23.4,3.95 35.25,5.325 66,7.625 15.7,1.15 19.65,1.25 63.25,1.5 25.6,0.1 50.35,0.0125 55,-0.1875 77.45,-3.85 142.5625,-42.25 170.8125,-100.75 9.5,-19.7 14.5812,-42.6 13.7813,-62 -1.15,-26.8 -9.0938,-49.99375 -24.8438,-72.09375 -14.3,-20.15 -33.6438,-36.2625 -58.3438,-48.5625 C 1066.2562,347.19375 1016.5,342.25 973,354.5 c -27.1,7.65 -49.1,20.1875 -67,38.1875 -17.3,17.45 -27.6625,36.3625 -32.3125,58.8125 -1.1,5.4 -1.34375,8.25625 -1.59375,16.90625 -0.2,10.35 -0.0312,12.89375 1.71875,21.59375 1.2,6.1 3.5,13.49375 6,19.09375 2.9,6.5 2.8375,6.34375 5.9375,11.59375 18.35,30.65 52.15625,51.375 92.90625,56.875 7.45,1 25.44375,1.15 32.34375,0.25 27.35,-3.55 50.8062,-14.2 66.9062,-30.5 14.8,-14.95 22.5938,-31.50625 24.0938,-50.90625 1.4,-18.25 -5.4375,-36.99375 -18.6875,-51.09375 -4.15,-4.4 -12.15,-10.56875 -17.75,-13.71875 -7.35,-4.1 -7.6125,-4.19375 -19.5625,-8.34375 -0.7,-0.25 -2.6,-0.7 -4.25,-1 -1.65,-0.3 -4.0063,-0.8125 -5.1562,-1.0625 -4.1,-0.9 -18.0438,-1.4875 -22.5938,-0.9375 -16.7,2 -29.25625,7.5375 -39.65625,17.4375 -8.65,8.25 -12.95625,16.60625 -14.90625,28.90625 -0.8,5.35 0.0625,13.05625 2.0625,17.90625 3.5,8.55 7.45,13.60625 14.25,18.15625 6.9,4.6 12.4,6.25 21.25,6.25 9,0.05 13.6,-1.1625 20,-5.0625 5.8,-3.55 9.1937,-8.54375 10.5938,-15.34375 1.0999,-5.5 -1.0063,-13.15625 -4.9063,-18.15625 -3.9,-4.9 -11,-7.45625 -17,-6.15625 -3.7,0.8 -4.4375,1.15625 -7.6875,3.65625 -1.4,1.05 -2.69375,1.85 -2.84375,1.75 -0.5,-0.55 2.0375,-4.54375 4.1875,-6.59375 8.15005,-7.85 25.50625,-9.60625 40.65625,-4.15625 10.4,3.75 19.3063,11.2125 23.4062,19.5625 5.4001,11 3.7313,24.3375 -4.4687,36.4375 -2.7,3.95 -9.1875,10.45 -13.4375,13.5 -7.1,5.05 -17.8563,9.81875 -26.9062,11.96875 -7.8001,1.85 -13.0438,2.4375 -22.5938,2.4375 -13.1,-0.05 -21.65625,-1.4125 -33.40625,-5.3125 C 942.09375,530.5875 926.3,518.75 916.5,502.75 915.1,500.5 914,498.6 914,498.5 c 0,-0.15 -0.6375,-1.64375 -1.4375,-3.34375 -6,-13.2 -6.6625,-30.35625 -1.8125,-45.15625 7.05,-21.3 24.5,-40.2625 47.75,-51.8125 15.55,-7.7 31.2625,-12.2375 48.5625,-13.9375 6.9,-0.7 23.95,-0.7125 30,-0.0625 33.95,3.75 62.95,16.025 85,35.875 14.2,12.85 25.4375,30.8875 29.9375,47.9375 2,7.55 2.4,10.35 3,19 1.55,22.6 -6.8063,48.05 -22.4062,68.25 -25.05,32.45 -65.1501,53.3625 -113.75,59.3125 -9.6,1.15 -32.7938,1.49375 -78.0938,1.09375 -29,-0.25 -42.1,-0.54375 -49.25,-1.09375 -5.35,-0.45 -12.6125,-1.0125 -16.0625,-1.3125 -12.3,-0.9 -33.3375,-3.6 -47.1875,-6 -3,-0.55 -11.45,-1.9375 -18.75,-3.1875 -14.25,-2.45 -42,-7.9625 -57,-11.3125 -5.1,-1.15 -18.35,-4.05 -29.5,-6.5 -11.15,-2.45 -26.55,-6.10625 -34.25,-8.15625 -7.7,-2.05 -18.6,-4.9 -24.25,-6.25 -27.25,-6.65 -35.7,-9.25 -74.5,-23 -31.8,-11.25 -43.3,-15.83125 -60,-24.03125 -7.95,-3.9 -11.4,-5.5625 -18.75,-8.8125 -1.35,-0.65 -4.05,-1.85 -6,-2.75 -1.9,-0.9 -4.75,-2.20625 -6.25,-2.90625 -1.5,-0.65 -4.85625,-2.20625 -7.40625,-3.40625 -2.6,-1.2 -4.74375,-2.1875 -4.84375,-2.1875 -0.1,0 -2.24375,-0.9875 -4.84375,-2.1875 -2.55,-1.2 -5.75625,-2.7125 -7.15625,-3.3125 -3.8,-1.75 -29.55,-14.59375 -33.25,-16.59375 -1.8,-0.95 -4.99375,-2.69375 -7.09375,-3.84375 -10.05,-5.3 -11.70625,-6.2125 -12.15625,-6.5625 -0.25,-0.2 -1.75,-1.04375 -3.25,-1.84375 -4.05,-2.2 -7.15,-3.95625 -12.75,-7.15625 -2.75,-1.55 -6.35,-3.6 -8,-4.5 -1.65,-0.9 -6.35,-3.55625 -10.5,-5.90625 -19.15,-10.85 -22.2,-12.54375 -25,-14.09375 -1.65,-0.9 -6.05,-3.35 -9.75,-5.5 -3.7,-2.1 -11.7,-6.6 -17.75,-10 -19.7,-11.05 -64.74375,-39.69375 -63.84375,-40.59375 0.25,-0.25 4.00625,-0.0188 8.65625,0.53125 8.65,1.05 44.9875,4.1625 58.9375,5.0625 4.55,0.3 11.75,0.75 16,1 50.2,3.2 52.8,3.2 95,-0.5 54.2,-4.7 98.8,-10.4625 142.75,-18.3125 8.55,-1.5 16.95,-3.0375 18.75,-3.4375 1.8,-0.4 7.75,-1.65 13.25,-2.75 45.15,-9.3 89.5,-21.8125 151.5,-42.8125 11,-3.75 31.35,-10.6 45.25,-15.25 l 25.25,-8.4375 h 164.3438 164.3437 l 3.2187,-1.15625 c 8.5,-3.1 13.3438,-11.7875 11.3438,-20.4375 -1.25,-5.45 -5.95,-10.65625 -11.75,-12.90625 -1.8,-0.65 -19.9,-0.8 -169.25,-1 L 841.75,262 l -19,-11.8125 C 812.3,243.7375 797.55,234.75 790,230.25 c -7.55,-4.45 -15.9,-9.45 -18.5,-11 -6.7,-4.05 -19.4875,-11.5 -19.6875,-11.5 -0.1,0 -3.7625,-2.05 -8.0625,-4.5 -4.3,-2.5 -7.9,-4.5 -8,-4.5 -0.05,0 -1.9125,-0.95625 -4.0625,-2.15625 -2.2,-1.2 -5.7375,-3.14375 -7.9375,-4.34375 -6.05,-3.25 -32.4,-16.49375 -37.5,-18.84375 -9.2,-4.25 -12.05,-5.5625 -14.75,-6.8125 -1.5,-0.7 -4.65,-2.05 -7,-3 -4.55,-1.85 -10.4,-4.28125 -19.25,-8.03125 -49.05,-20.8 -122.45,-43.475 -170.25,-52.625 -30.3,-5.75 -40.7125,-6.74375 -71.8125,-6.59375 z M 434.625,132.75 c 1.39688,0.0173 4.30625,0.4 8.9375,1 4.25,0.55 10.0375,1.45 12.9375,2 2.9,0.5 8.95,1.65 13.5,2.5 4.55,0.85 10.3,2.0125 12.75,2.5625 12.2,2.8 23.95,5.73125 33,8.28125 10.05,2.75 11.65,3.25625 21.25,6.15625 16.95,5.1 21.3,6.44375 35.5,11.09375 12.95,4.25 16.15625,5.36875 25.65625,8.96875 8.95,3.4 12.24375,4.58125 14.84375,5.53125 1.5,0.55 3.14375,1.21875 3.59375,1.46875 0.5,0.25 1.10625,0.4375 1.40625,0.4375 0.25,0 1.64375,0.5375 3.09375,1.1875 1.5,0.7 3.89375,1.7125 5.34375,2.3125 1.5,0.55 3.65,1.45 4.75,2 1.15,0.5 3.8625,1.65 6.0625,2.5 2.2,0.85 4.9125,2 6.0625,2.5 1.1,0.55 3.25,1.45 4.75,2 1.45,0.6 3.84375,1.6125 5.34375,2.3125 1.45,0.65 2.69375,1.1875 2.84375,1.1875 0.1,0 2.49375,1.10625 5.34375,2.40625 2.85,1.35 6.60625,3.10625 8.40625,3.90625 3.9,1.75 30.90625,15.29375 35.65625,17.84375 1.85,1 4.75,2.58125 6.5,3.53125 6.1,3.25 10.15,5.50625 14.25,7.90625 2.3,1.3 4.24375,2.40625 4.34375,2.40625 0.55,0 24.2,13.95625 50.25,29.65625 7.3,4.4 13.84375,8.33125 14.59375,8.78125 1.6,0.95 1.7625,1.3125 0.5625,1.8125 -1,0.4 -29.55625,10.2 -39.40625,13.5 -30.7,10.35 -71.4125,22.5875 -96.3125,28.9375 C 609.4875,332.3875 554.6,342 491,349 c -20.5,2.25 -49.0875,4.7875 -49.4375,4.4375 -0.15,-0.2 0.0375,-0.5 0.4375,-0.75 0.4,-0.25 3.35,-1.975 6.5,-3.875 8.85,-5.3 15.6125,-10.6125 23.3125,-18.3125 10.5,-10.45 18.28125,-21.55 24.53125,-35 4.05,-8.7 7.59375,-20.25 9.09375,-29.5 0.35,-1.95 0.85625,-4.85 1.15625,-6.5 0.3,-1.65 0.5,-8.2 0.5,-14.5 0,-9.25 -0.18125,-12.75 -1.03125,-18 -5.2,-32.1 -21.06875,-59.00625 -45.96875,-78.15625 -6.35,-4.85 -12.44375,-8.5875 -20.84375,-12.6875 -5.09375,-2.46875 -6.95312,-3.43506 -4.625,-3.40625 z m -101.4375,5.125 c 1.1376,-0.0939 -0.3625,1.04688 -4.625,3.625 -16.7,10.2 -30.7,24.2 -40.5,40.5 -3.4,5.65 -7.2,13.2 -9,18 -0.65,1.65 -1.625,4.1 -2.125,5.5 -1.35,3.55 -4.3375,15.8 -4.9375,20.25 -1.6,11.3 -1.7875,27.35 -0.4375,35.25 0.25,1.65 0.7,4.35 1,6 0.8,4.95 2.9,12.94375 4.5,17.34375 0.85,2.3 1.6875,4.70625 1.9375,5.40625 0.8,2.6 5.95,12.95 9,18 9.55,15.95 24.1,30.5625 40,40.3125 3.05,1.8 5.5,3.53125 5.5,3.78125 0,0.3 -0.99375,0.41875 -2.59375,0.21875 C 329.45625,351.9125 320.05,351.05 310,350.25 259.3,346 225.25625,339.64375 194.65625,328.59375 c -5.75,-2.05 -7.20625,-2.75 -7.65625,-3.75 -0.4,-0.95 -0.69375,-1.0875 -1.09375,-0.6875 -0.35,0.35 -0.9125,0.59375 -1.3125,0.59375 -1.25,0 -17.54375,-7.45625 -26.09375,-11.90625 -15.65,-8.15 -32.3,-18.73125 -47.5,-30.28125 -10.3,-7.75 -14,-10.85 -14,-11.5 0,-0.8 11.6,-12.60625 21.5,-21.90625 8.4,-7.9 27.1125,-23.69375 33.3125,-28.09375 4,-2.85 7.2875,-5.25625 11.1875,-8.15625 3.25,-2.4 10.89375,-7.5125 14.34375,-9.5625 1.3,-0.8 4.90625,-3.0375 7.90625,-4.9375 3.05,-1.9 7.1,-4.35625 9,-5.40625 1.95,-1.05 4.85,-2.6 6.5,-3.5 1.65,-0.95 4.45,-2.4875 6.25,-3.4375 3.45,-1.95 16.1,-8.2125 21.75,-10.8125 1.85,-0.85 4.9875,-2.3 6.9375,-3.25 1.95,-0.9 6.1625,-2.7 9.3125,-4 3.15,-1.3 8.8,-3.59375 12.5,-5.09375 8.35,-3.4 14.35,-5.60625 30,-10.90625 12.6,-4.25 15.95,-5.35 31,-9.75 4.8,-1.45 10,-3 11.5,-3.5 1.59375,-0.53125 2.67041,-0.83234 3.1875,-0.875 z"
       id="path3624"
       inkscape:connector-curvature="0" />
    <circle
       transform="matrix(1.9474161,0,0,1.2850906,-447.7731,-145.75111)"
       id="path3634"
       style="fill:url(#linearGradient2833);fill-opacity:1;stroke:url(#linearGradient2835);stroke-width:4.04560709;stroke-miterlimit:4;stroke-dasharray:none"
       cx="389.68335"
       cy="236.55493"
       r="35.727898" />
  </g>
</svg>
